<svg width="24" height="25" viewBox="0 0 24 25" fill="none" xmlns="http://www.w3.org/2000/svg">
<path d="M8.02742 19.2291C8.02742 19.3259 7.91613 19.4033 7.77581 19.4033C7.61613 19.4179 7.50484 19.3404 7.50484 19.2291C7.50484 19.1324 7.61613 19.0549 7.75645 19.0549C7.90161 19.0404 8.02742 19.1179 8.02742 19.2291ZM6.52258 19.0114C6.48871 19.1082 6.58548 19.2195 6.73065 19.2485C6.85645 19.2969 7.00161 19.2485 7.03065 19.1517C7.05968 19.0549 6.96774 18.9437 6.82258 18.9001C6.69677 18.8662 6.55645 18.9146 6.52258 19.0114ZM8.66129 18.9291C8.52097 18.963 8.42419 19.0549 8.43871 19.1662C8.45323 19.263 8.57903 19.3259 8.72419 19.292C8.86452 19.2582 8.96129 19.1662 8.94677 19.0695C8.93226 18.9775 8.80161 18.9146 8.66129 18.9291ZM11.8452 0.387207C5.13387 0.387207 0 5.48237 0 12.1937C0 17.5598 3.37742 22.1517 8.20161 23.7679C8.82097 23.8791 9.03871 23.4969 9.03871 23.1824C9.03871 22.8824 9.02419 21.2275 9.02419 20.2114C9.02419 20.2114 5.6371 20.9372 4.92581 18.7695C4.92581 18.7695 4.37419 17.3614 3.58065 16.9985C3.58065 16.9985 2.47258 16.2388 3.65806 16.2533C3.65806 16.2533 4.8629 16.3501 5.52581 17.5017C6.58548 19.3695 8.36129 18.8324 9.05323 18.513C9.16452 17.7388 9.47903 17.2017 9.82742 16.8824C7.12258 16.5824 4.39355 16.1904 4.39355 11.5356C4.39355 10.2049 4.76129 9.53721 5.53548 8.68559C5.40968 8.37108 4.99839 7.0743 5.66129 5.40011C6.67258 5.08559 9 6.70656 9 6.70656C9.96774 6.43559 11.0081 6.29527 12.0387 6.29527C13.0694 6.29527 14.1097 6.43559 15.0774 6.70656C15.0774 6.70656 17.4048 5.08076 18.4161 5.40011C19.079 7.07914 18.6677 8.37108 18.5419 8.68559C19.3161 9.54205 19.7903 10.2098 19.7903 11.5356C19.7903 16.2049 16.9403 16.5775 14.2355 16.8824C14.6806 17.2646 15.0581 17.9904 15.0581 19.1275C15.0581 20.7582 15.0435 22.7759 15.0435 23.1727C15.0435 23.4872 15.2661 23.8695 15.8806 23.7582C20.7194 22.1517 24 17.5598 24 12.1937C24 5.48237 18.5565 0.387207 11.8452 0.387207ZM4.70323 17.0759C4.64032 17.1243 4.65484 17.2356 4.7371 17.3275C4.81452 17.4049 4.92581 17.4388 4.98871 17.3759C5.05161 17.3275 5.0371 17.2162 4.95484 17.1243C4.87742 17.0469 4.76613 17.013 4.70323 17.0759ZM4.18065 16.684C4.14677 16.7469 4.19516 16.8243 4.29194 16.8727C4.36935 16.9211 4.46613 16.9066 4.5 16.8388C4.53387 16.7759 4.48548 16.6985 4.38871 16.6501C4.29194 16.6211 4.21452 16.6356 4.18065 16.684ZM5.74839 18.4066C5.67097 18.4695 5.7 18.6146 5.81129 18.7066C5.92258 18.8179 6.0629 18.8324 6.12581 18.7549C6.18871 18.692 6.15968 18.5469 6.0629 18.4549C5.95645 18.3437 5.81129 18.3291 5.74839 18.4066ZM5.19677 17.6953C5.11935 17.7437 5.11935 17.8695 5.19677 17.9808C5.27419 18.092 5.40484 18.1404 5.46774 18.092C5.54516 18.0291 5.54516 17.9033 5.46774 17.792C5.4 17.6808 5.27419 17.6324 5.19677 17.6953Z" fill="white"/>
</svg>
