<svg width="100" height="100" viewBox="0 0 100 100" fill="none" xmlns="http://www.w3.org/2000/svg">
<ellipse cx="50" cy="49.7755" rx="50" ry="49.7755" fill="#E8E8E8"/>
<path d="M50 48.7801C53.6373 48.7801 57.1255 47.3642 59.6975 44.8438C62.2694 42.3234 63.7143 38.9051 63.7143 35.3407C63.7143 31.7764 62.2694 28.358 59.6975 25.8377C57.1255 23.3173 53.6373 21.9014 50 21.9014C46.3627 21.9014 42.8745 23.3173 40.3025 25.8377C37.7306 28.358 36.2857 31.7764 36.2857 35.3407C36.2857 38.9051 37.7306 42.3234 40.3025 44.8438C42.8745 47.3642 46.3627 48.7801 50 48.7801ZM45.1036 53.8199C34.55 53.8199 26 62.1985 26 72.5405C26 74.2624 27.425 75.6589 29.1821 75.6589H70.8179C72.575 75.6589 74 74.2624 74 72.5405C74 62.1985 65.45 53.8199 54.8964 53.8199H45.1036Z" fill="white"/>
</svg>
