<svg width="24" height="32" viewBox="0 0 24 32" fill="none" xmlns="http://www.w3.org/2000/svg">
<path d="M21.4123 9.4123C22.1936 8.63105 22.1936 7.3623 21.4123 6.58105C20.6311 5.7998 19.3623 5.7998 18.5811 6.58105L11.9998 13.1686L5.4123 6.5873C4.63105 5.80605 3.3623 5.80605 2.58105 6.5873C1.7998 7.36855 1.7998 8.6373 2.58105 9.41855L9.16855 15.9998L2.5873 22.5873C1.80605 23.3686 1.80605 24.6373 2.5873 25.4186C3.36855 26.1998 4.6373 26.1998 5.41855 25.4186L11.9998 18.8311L18.5873 25.4123C19.3686 26.1936 20.6373 26.1936 21.4186 25.4123C22.1998 24.6311 22.1998 23.3623 21.4186 22.5811L14.8311 15.9998L21.4123 9.4123Z" fill="#5E5E5E"/>
</svg>
