<svg width="20" height="24" viewBox="0 0 20 24" fill="none" xmlns="http://www.w3.org/2000/svg">
<g clip-path="url(#clip0_78_1741)">
<path d="M6.03571 1.36147C6.27679 0.874861 6.77232 0.571289 7.3125 0.571289H12.6875C13.2277 0.571289 13.7232 0.874861 13.9643 1.36147L14.2857 1.99986H18.5714C19.3616 1.99986 20 2.63825 20 3.42843C20 4.21861 19.3616 4.857 18.5714 4.857H1.42857C0.638393 4.857 0 4.21861 0 3.42843C0 2.63825 0.638393 1.99986 1.42857 1.99986H5.71429L6.03571 1.36147ZM1.42857 6.28557H18.5714V20.5713C18.5714 22.1472 17.2902 23.4284 15.7143 23.4284H4.28571C2.70982 23.4284 1.42857 22.1472 1.42857 20.5713V6.28557ZM5.71429 9.14272C5.32143 9.14272 5 9.46415 5 9.857V19.857C5 20.2499 5.32143 20.5713 5.71429 20.5713C6.10714 20.5713 6.42857 20.2499 6.42857 19.857V9.857C6.42857 9.46415 6.10714 9.14272 5.71429 9.14272ZM10 9.14272C9.60714 9.14272 9.28571 9.46415 9.28571 9.857V19.857C9.28571 20.2499 9.60714 20.5713 10 20.5713C10.3929 20.5713 10.7143 20.2499 10.7143 19.857V9.857C10.7143 9.46415 10.3929 9.14272 10 9.14272ZM14.2857 9.14272C13.8929 9.14272 13.5714 9.46415 13.5714 9.857V19.857C13.5714 20.2499 13.8929 20.5713 14.2857 20.5713C14.6786 20.5713 15 20.2499 15 19.857V9.857C15 9.46415 14.6786 9.14272 14.2857 9.14272Z" fill="#969696"/>
</g>
<defs>
<clipPath id="clip0_78_1741">
<rect width="20" height="22.8571" fill="white" transform="translate(0 0.571289)"/>
</clipPath>
</defs>
</svg>
