<svg width="24" height="24" viewBox="0 0 24 24" fill="none" xmlns="http://www.w3.org/2000/svg">
<path fill-rule="evenodd" clip-rule="evenodd" d="M24.0002 12.2724C24.0002 11.4215 23.9223 10.6033 23.7776 9.81787H12.2451V14.4597H18.8351C18.5513 15.9597 17.6885 17.2306 16.3917 18.0815V21.0924H20.349C22.6644 19.0033 24.0002 15.927 24.0002 12.2724Z" fill="#4285F4"/>
<path fill-rule="evenodd" clip-rule="evenodd" d="M12.2452 23.9998C15.5514 23.9998 18.3232 22.9253 20.3492 21.0925L16.3918 18.0816C15.2953 18.8016 13.8927 19.2271 12.2452 19.2271C9.056 19.2271 6.35655 17.1162 5.39365 14.2798H1.30273V17.3889C3.31758 21.3107 7.45859 23.9998 12.2452 23.9998Z" fill="#34A853"/>
<path fill-rule="evenodd" clip-rule="evenodd" d="M5.39333 14.2799C5.14843 13.5599 5.00929 12.7908 5.00929 11.9999C5.00929 11.209 5.14843 10.4399 5.39333 9.71993V6.61084H1.30241C0.473099 8.23084 0 10.0636 0 11.9999C0 13.9363 0.473099 15.769 1.30241 17.389L5.39333 14.2799Z" fill="#FBBC05"/>
<path fill-rule="evenodd" clip-rule="evenodd" d="M12.2452 4.77273C14.043 4.77273 15.6571 5.37819 16.9261 6.56728L20.4382 3.12546C18.3176 1.18909 15.5458 0 12.2452 0C7.45859 0 3.31758 2.68909 1.30273 6.61092L5.39365 9.72001C6.35655 6.88364 9.056 4.77273 12.2452 4.77273Z" fill="#EA4335"/>
</svg>
