<svg width="24" height="28" viewBox="0 0 24 28" fill="none" xmlns="http://www.w3.org/2000/svg">
<path d="M0 5.143C0 4.19478 0.766071 3.42871 1.71429 3.42871H22.2857C23.2339 3.42871 24 4.19478 24 5.143C24 6.09121 23.2339 6.85728 22.2857 6.85728H1.71429C0.766071 6.85728 0 6.09121 0 5.143ZM0 13.7144C0 12.7662 0.766071 12.0001 1.71429 12.0001H22.2857C23.2339 12.0001 24 12.7662 24 13.7144C24 14.6626 23.2339 15.4287 22.2857 15.4287H1.71429C0.766071 15.4287 0 14.6626 0 13.7144ZM24 22.2859C24 23.2341 23.2339 24.0001 22.2857 24.0001H1.71429C0.766071 24.0001 0 23.2341 0 22.2859C0 21.3376 0.766071 20.5716 1.71429 20.5716H22.2857C23.2339 20.5716 24 21.3376 24 22.2859Z" fill="#5E5E5E"/>
</svg>
