<svg width="100" height="100" viewBox="0 0 100 100" fill="none" xmlns="http://www.w3.org/2000/svg">
<g clip-path="url(#clip0_271_478)">
<path d="M49.9996 6.25C52.7731 6.25 55.3317 7.71484 56.7379 10.1172L98.9254 81.9922C100.351 84.4141 100.351 87.4023 98.9645 89.8242C97.5778 92.2461 94.9801 93.75 92.1871 93.75H7.81213C5.01916 93.75 2.4215 92.2461 1.03478 89.8242C-0.351936 87.4023 -0.332404 84.3945 1.07385 81.9922L43.2613 10.1172C44.6676 7.71484 47.2262 6.25 49.9996 6.25ZM49.9996 31.25C47.402 31.25 45.3121 33.3398 45.3121 35.9375V57.8125C45.3121 60.4102 47.402 62.5 49.9996 62.5C52.5973 62.5 54.6871 60.4102 54.6871 57.8125V35.9375C54.6871 33.3398 52.5973 31.25 49.9996 31.25ZM56.2496 75C56.2496 73.3424 55.5911 71.7527 54.419 70.5806C53.2469 69.4085 51.6572 68.75 49.9996 68.75C48.342 68.75 46.7523 69.4085 45.5802 70.5806C44.4081 71.7527 43.7496 73.3424 43.7496 75C43.7496 76.6576 44.4081 78.2473 45.5802 79.4194C46.7523 80.5915 48.342 81.25 49.9996 81.25C51.6572 81.25 53.2469 80.5915 54.419 79.4194C55.5911 78.2473 56.2496 76.6576 56.2496 75Z" fill="#4CD964"/>
</g>
<defs>
<clipPath id="clip0_271_478">
<rect width="100" height="100" fill="white"/>
</clipPath>
</defs>
</svg>
