<svg width="24" height="28" viewBox="0 0 24 28" fill="none" xmlns="http://www.w3.org/2000/svg">
<g clip-path="url(#clip0_269_468)">
<path d="M0.503209 12.5204C-0.166434 13.1909 -0.166434 14.2798 0.503209 14.9504L9.07464 23.5333C9.74428 24.2038 10.8318 24.2038 11.5014 23.5333C12.1711 22.8627 12.1711 21.7738 11.5014 21.1032L5.84964 15.4493H22.2854C23.2336 15.4493 23.9996 14.6822 23.9996 13.7327C23.9996 12.7832 23.2336 12.0161 22.2854 12.0161H5.85499L11.4961 6.36213C12.1657 5.69159 12.1657 4.60264 11.4961 3.9321C10.8264 3.26156 9.73892 3.26156 9.06928 3.9321L0.497852 12.515L0.503209 12.5204Z" fill="#4CD964"/>
</g>
<defs>
<clipPath id="clip0_269_468">
<rect width="24" height="27.4652" fill="white"/>
</clipPath>
</defs>
</svg>
